<svg id="svg3376" xmlns="http://www.w3.org/2000/svg" viewBox="0 0 740.08 1248.41"><defs><style>.cls-1{fill:#fff;}.cls-2{fill:none;stroke:#fff;stroke-linecap:round;stroke-miterlimit:10;stroke-width:50px;}</style></defs><g id="g3384"><g id="g3386"><path id="path3390" class="cls-1" d="M740.29,87c7.94,4.05,14.52,12.6,14.85,22.36L789.67,882a28.55,28.55,0,0,1-3.18,13.07,27.51,27.51,0,0,1-18.4,14.16c-6.82,1.24-12.44.81-18.64-2.41L63.92,551a24.19,24.19,0,0,1-10.37-9.8,26.92,26.92,0,0,1-.94-26.44c2.44-4.21,5.87-8.22,9.46-10.42L713.68,87.71l.18-.11.18-.1a24.86,24.86,0,0,1,7.15-2.82,27.52,27.52,0,0,1,17.29,1.49C739.1,86.42,739.7,86.69,740.29,87Zm9.16,819.84,1.69.88-1.72-.9ZM679.48,205,182.72,522.53,706.09,794.19,679.48,205Z" transform="translate(-49.59 -83.92)"/><path id="path3394" class="cls-1" d="M465.69,626.74l59.86-25c2.59,0,5.71-.95,7.76.12l8.78.65c4.64,1.1,10.35.15,15-1.33l41.11-16.44c18.75-8.51,39.81,1.11,47.29,19.33A13.92,13.92,0,0,1,648,611.9l22,120.86c.45,4.14-1.68,8.25-5.83,8.7a8.65,8.65,0,0,1-5.17-.08L465,640.68c-4.11-2.13-4.56-6.27-2.43-10.38.53-1,1.6-3.08,3.16-3.57ZM643.9,403.91a27.76,27.76,0,0,1-49.28-25.58c6.93-13.34,23.55-17.74,36.9-10.82s19.3,23.05,12.38,36.4ZM456.65,438.32l71.08-49.1L502.07,375.9l-30.31,20.75L480.23,418l-9.93,6.57-9-20.3-14.11,9.61c-8.1-12-4.74-28.52,6.74-35.58l37.13-26.34a18.45,18.45,0,0,1,18.63-.76L567.17,381a28.64,28.64,0,0,1,12.34,39l-1.06,2.05-56.24,93.29,33.92,82.75a40,40,0,0,1-12.44,1.36l-29.44-71.3-6.88,10.75c-11.79-7.42-15.7-22.48-8.28-34.26l2.67-5.13-9-20.31,9.93-6.58,7,14.07,22.84-39-47.06,32.91-28.84-42.33ZM442.38,629C428,621.51,421.55,603.83,429,589.46L455.2,534l-5.38-54.91L322.29,566.63c-8.59-13.58-5.73-31.64,8.38-41.25l119.7-82.5,29.38,41.31,4.88,53.35c-.53,1,0,2.58-.57,3.61" transform="translate(-49.59 -83.92)"/></g></g><line class="cls-2" x1="370.62" y1="619.72" x2="57.27" y2="1223.41"/></svg>