<svg id="Layer_1" data-name="Layer 1" xmlns="http://www.w3.org/2000/svg" viewBox="0 0 237.45 226.72"><defs><style>.cls-1{fill:none;stroke:#fff;stroke-miterlimit:10;stroke-width:3px;}.cls-2{fill:#fff;}</style></defs><circle class="cls-1" cx="51.56" cy="46.68" r="32.98"/><path class="cls-1" d="M43.91,41.15c0-3.58.82-9.36,7.65-9.45s8.57,3.87,8.7,8.43a7.89,7.89,0,0,1-7.07,8.17c-1.62.21-1.1,4.68-1.1,7"/><circle class="cls-2" cx="51.9" cy="61.43" r="2.02"/><circle class="cls-1" cx="106.55" cy="33.45" r="6.04"/><circle class="cls-1" cx="135.02" cy="36.17" r="4.09"/><circle class="cls-1" cx="168.38" cy="48.83" r="1.69"/><path class="cls-1" d="M151,49.4c2-3.25,13.47-21.41,29-20.93S199.56,41.2,199.4,47.94s-6,26.74-6.6,29-.77,2.36-.13,3.32,28.4,22.72,28.56,37.4-16.91,26.17-41.52,28.21"/><path class="cls-1" d="M204.05,140.09c.4,4,7.1,74.63,7.1,74.63l-77.79-.85,15.49-17.7-3.4-43.57"/><line class="cls-1" x1="170.64" y1="161.79" x2="170.64" y2="214.28"/><path class="cls-1" d="M177.7,136.09s1.47-.9,8.4-1.54"/><path class="cls-1" d="M176.17,125.62c5.17-1,9.06-2.36,11.36-2.81s11.11-2.87,11.17-11.24"/><path class="cls-1" d="M141.64,133.53c-2.17-.13-7.75-2.74-8.28-3.19"/><path class="cls-1" d="M141.64,122.94a28,28,0,0,1-8.28-3.07"/><path class="cls-1" d="M142.53,144c-13.85-1.47-24.13-9.57-24.38-21.06s27.93-42.22,42.51-48.39l-1-21.06L151,48.83"/><path class="cls-1" d="M184,70.6c-3.88-.86-4.52-1.7-6.69-1.75-1.95,0-1.79,1.24-4.43,1.28s-3.23-2.85-5.4-3.28-6.79,1.24-6.79,1.24"/><path class="cls-1" d="M138.78,143.42c-.17.11-.14,11-.14,11l14.72-5.66,14.9,7.11,18.55-3.15V145"/><polyline class="cls-1" points="137.5 121.78 137.51 114.04 153.05 111.15 165.3 118.6 181.36 112.77 181.36 124.42"/><line class="cls-1" x1="153.62" y1="148.72" x2="153.62" y2="111.15"/><line class="cls-1" x1="165.3" y1="118.6" x2="168.26" y2="155.83"/></svg>